HIERARCHY
ROOT Hips
{
	OFFSET -3.958830 18.904000 13.208200
	CHANNELS 6 Xposition Yposition Zposition Zrotation Yrotation Xrotation 
	JOINT LHipJoint
	{
		OFFSET 0.000000 0.000000 0.000000
		CHANNELS 3 Zrotation Yrotation Xrotation
		JOINT LeftUpLeg
		{
			OFFSET 1.800000 -1.400000 0.085000
			CHANNELS 3 Zrotation Yrotation Xrotation
			JOINT LeftLeg
			{
				OFFSET 2.215000 -6.000000 0.000000
				CHANNELS 3 Zrotation Yrotation Xrotation
				JOINT LeftFoot
				{
					OFFSET 2.500000 -6.900000 0.000000
					CHANNELS 3 Zrotation Yrotation Xrotation
					JOINT LeftToeBase
					{
						OFFSET 0.200000 -0.500000 1.950000
						CHANNELS 3 Zrotation Yrotation Xrotation
						End Site
						{
							OFFSET 0.000000 0.000000 0.000000
						}
					}
				}
			}
		}
	}
	JOINT RHipJoint
	{
		OFFSET 0.000000 0.000000 0.000000
		CHANNELS 3 Zrotation Yrotation Xrotation
		JOINT RightUpLeg
		{
			OFFSET -1.800000 -1.400000 0.085000
			CHANNELS 3 Zrotation Yrotation Xrotation
			JOINT RightLeg
			{
				OFFSET -2.215000 -6.000000 0.000000
				CHANNELS 3 Zrotation Yrotation Xrotation
				JOINT RightFoot
				{
					OFFSET -2.500000 -6.900000 0.000000
					CHANNELS 3 Zrotation Yrotation Xrotation
					JOINT RightToeBase
					{
						OFFSET -0.200000 -0.500000 1.950000
						CHANNELS 3 Zrotation Yrotation Xrotation
						End Site
						{
							OFFSET 0.000000 0.000000 0.000000
						}
					}
				}
			}
		}
	}
	JOINT LowerBack
	{
		OFFSET 0.000000 0.000000 0.000000
		CHANNELS 3 Zrotation Yrotation Xrotation
		JOINT Spine
		{
			OFFSET -0.087000 1.940000 -0.288900
			CHANNELS 3 Zrotation Yrotation Xrotation
			JOINT Spine1
			{
				OFFSET 0.000000 1.950000 0.060000
				CHANNELS 3 Zrotation Yrotation Xrotation
				JOINT Neck
				{
					OFFSET 0.000000 0.000000 0.000000
					CHANNELS 3 Zrotation Yrotation Xrotation
					JOINT Neck1
					{
						OFFSET 0.000000 1.600000 0.340000
						CHANNELS 3 Zrotation Yrotation Xrotation
						JOINT Head
						{
							OFFSET 0.000000 1.667000 -0.240000
							CHANNELS 3 Zrotation Yrotation Xrotation
							End Site
							{
								OFFSET 0.000000 0.000000 0.000000
							}
						}
					}
				}
				JOINT LeftShoulder
				{
					OFFSET 0.000000 0.000000 0.000000
					CHANNELS 3 Zrotation Yrotation Xrotation
					JOINT LeftArm
					{
						OFFSET 2.700000 1.550000 -0.730000
						CHANNELS 3 Zrotation Yrotation Xrotation
						JOINT LeftForeArm
						{
							OFFSET 5.450000 0.000000 0.000000
							CHANNELS 3 Zrotation Yrotation Xrotation
							JOINT LeftHand
							{
								OFFSET 3.450000 0.000000 0.000000
								CHANNELS 3 Zrotation Yrotation Xrotation
								JOINT LeftHandIndex1
								{
									OFFSET 0.750000 0.000000 0.000000
									CHANNELS 3 Zrotation Yrotation Xrotation
									End Site
									{
										OFFSET 0.000000 0.000000 0.000000
									}
								}
							}
						}
					}
				}
				JOINT RightShoulder
				{
					OFFSET 0.000000 0.000000 0.000000
					CHANNELS 3 Zrotation Yrotation Xrotation
					JOINT RightArm
					{
						OFFSET -2.700000 1.550000 -0.730000
						CHANNELS 3 Zrotation Yrotation Xrotation
						JOINT RightForeArm
						{
							OFFSET -5.450000 0.000000 0.000000
							CHANNELS 3 Zrotation Yrotation Xrotation
							JOINT RightHand
							{
								OFFSET -3.450000 0.000000 0.000000
								CHANNELS 3 Zrotation Yrotation Xrotation
								JOINT RightHandIndex1
								{
									OFFSET -0.750000 0.000000 0.000000
									CHANNELS 3 Zrotation Yrotation Xrotation
									End Site
									{
										OFFSET 0.000000 0.000000 0.000000
									}
								}
							}
						}
					}
				}
			}
		}
	}
}
MOTION
Frames: 7
Frame Time: 0.016667
-0.866270 16.961680 -2.043620 -2.965025 7.148297 -2.588217 -15.510822 12.330060 4.706152 -7.712275 -8.810699 -33.892568 13.052034 7.391696 74.645912 1.634494 12.494629 0.354090 0.179080 0.126260 0.153610 18.017042 -10.778379 2.068523 -11.465669 0.731340 -19.044196 0.064299 -3.118304 11.990087 0.135087 -2.510983 3.436987 0.169350 0.091270 0.051080 -2.875579 -0.785154 -8.215688 2.368426 5.724970 25.091254 3.297725 6.139876 5.327573 3.131419 2.996806 -6.759361 5.049443 -3.242728 39.346481 -2.416490 -1.602510 -4.993130 -15.257655 0.139492 2.757207 -23.333981 9.523420 -5.204595 19.891827 -24.549486 -2.813296 -3.845194 3.055220 0.118640 0.092940 -0.036280 0.028380 9.692574 4.066534 0.375593 19.003729 11.633962 -9.850157 -40.520901 76.534944 -27.556747 1.720589 -0.878630 -0.107760 0.148470 0.014210 -0.085720 
-0.877960 16.929600 -2.046620 -3.200212 7.689342 -2.786707 -15.506024 12.340405 4.718244 -8.183607 -8.878878 -32.970293 12.251695 8.180175 75.744143 1.727290 12.733558 0.305205 0.178670 0.135790 0.143420 18.017461 -10.788645 2.042262 -11.789462 0.673486 -19.152108 -0.141994 -3.125885 12.353552 0.135377 -2.531751 3.432258 0.171100 0.096510 0.050560 -2.892461 -0.816012 -8.228596 2.841324 5.584395 25.036279 3.844479 5.955406 5.175723 2.826595 2.990164 -6.532390 4.951425 -3.347871 39.455467 -2.469160 -1.681050 -4.665340 -15.060595 0.541164 2.583815 -22.192189 10.123066 -5.520578 21.708687 -28.801938 -3.700045 -3.818928 3.099644 0.102940 0.098620 -0.038200 0.037570 10.128880 3.640585 0.178015 19.382613 11.653394 -9.864285 -42.212267 75.378206 -27.899953 1.706298 -0.846970 -0.100200 0.146550 0.007610 -0.074900 
-0.914680 16.857630 -2.060460 -3.320922 8.936984 -3.223056 -15.509832 12.352735 4.756233 -9.231517 -9.094295 -30.598225 9.190912 10.589179 76.408651 1.836003 13.086277 0.225588 0.182690 0.141370 0.144060 18.006619 -10.786068 1.980073 -12.867046 0.605142 -19.815895 0.197671 -3.400767 14.090711 0.133148 -2.638263 3.376239 0.180050 0.098170 0.050540 -2.890319 -0.940362 -8.241112 3.146020 5.277972 24.997899 4.710557 5.407563 5.137291 2.275287 3.160006 -6.050887 5.012039 -3.759561 40.039340 -2.535260 -1.967340 -4.441300 -14.428833 1.262445 2.010114 -19.423975 9.930881 -5.593127 24.825219 -35.776375 -5.573365 -3.790095 3.148800 0.097140 0.103790 -0.043080 0.037400 10.711255 2.603695 -0.122633 20.690215 11.863164 -9.685197 -42.178563 73.111767 -26.568363 1.710360 -0.889558 -0.101460 0.147220 0.008270 -0.075530 
-0.948680 16.767360 -2.075010 -4.115705 10.020488 -3.543811 -15.510981 12.419530 4.730858 -9.911309 -8.891722 -27.519616 5.047923 13.109055 74.177244 1.851270 13.082699 0.242113 0.181540 0.130560 0.160160 17.993931 -10.788648 1.973119 -13.081558 0.811819 -21.478489 0.724850 -3.837940 17.555320 0.126408 -2.809018 3.291232 0.180130 0.097470 0.051800 -2.886716 -1.083912 -8.232406 3.733487 4.825169 24.781348 6.216960 4.762498 4.808755 1.731642 3.928055 -5.886911 6.288059 -4.338275 40.225128 -2.780440 -1.632770 -3.939290 -12.963978 1.955038 1.588210 -17.187557 9.697279 -5.427759 24.719692 -41.384051 -6.578906 -3.766647 3.199201 0.100990 0.112560 -0.046010 0.033440 10.513719 1.084276 -0.272545 23.034967 12.033898 -9.191652 -35.440704 68.733578 -20.470166 1.804392 -1.123834 -0.112140 0.143750 0.004960 -0.088590 
-0.980520 16.679000 -2.091860 -5.291747 11.909340 -4.395571 -15.494410 12.609819 4.630748 -9.875363 -8.251852 -23.379683 -0.006754 15.045477 68.453371 1.735353 12.527142 0.393039 0.191680 0.138270 0.183230 17.987178 -10.767869 2.041755 -12.549771 1.457326 -23.748244 0.937913 -4.573447 24.316163 0.056349 -3.322781 3.074934 0.182020 0.072190 0.051440 -2.939318 -1.427020 -8.252010 5.331509 3.537909 25.471999 7.126654 3.542902 4.197358 1.143974 4.126592 -5.594858 6.247526 -4.678861 40.888018 -3.148680 -1.428210 -4.193030 -13.427743 1.756232 1.275871 -14.314801 9.880815 -5.262290 28.396609 -46.544410 -9.058810 -3.736240 3.189298 0.117020 0.100540 -0.029590 0.024410 12.259701 0.691707 -0.560421 24.792408 11.699319 -9.589326 -34.569154 65.041168 -18.514567 1.836986 -1.159024 -0.110080 0.137610 -0.001720 -0.101780 
-0.995710 16.587910 -2.122490 -7.358229 13.363010 -5.698442 -15.408947 12.801779 4.314284 -8.552566 -6.795838 -18.442404 -5.103655 15.768919 59.478739 1.483104 11.331105 0.726223 0.214340 0.168480 0.198450 18.061306 -10.568286 2.454702 -11.058154 3.255448 -27.557454 1.825900 -5.963956 34.135452 -0.154187 -4.494793 2.630628 0.184220 0.038030 0.046730 -3.203197 -1.801536 -8.357156 9.111774 1.297388 26.980997 6.953732 1.812804 3.441356 0.503310 3.356182 -5.432293 4.372767 -3.976166 42.140273 -2.861910 -1.094200 -4.825040 -13.965199 1.330454 1.000644 -12.372189 8.856170 -5.087209 33.394317 -48.458911 -11.549776 -3.689345 3.128115 0.140190 0.067430 0.002230 0.027590 13.958197 0.776654 -0.660114 26.622457 11.042523 -10.209595 -34.404516 60.942181 -16.962742 1.883828 -1.183252 -0.094180 0.131320 -0.019200 -0.102110 
-1.013600 16.508610 -2.164930 -9.139302 16.186912 -7.063336 -15.356854 12.829032 3.916566 -7.282158 -5.581819 -13.512635 -8.049709 15.252640 52.230834 1.243838 10.265261 1.045833 0.229570 0.178590 0.212730 18.162859 -10.124615 3.069565 -10.690739 5.383487 -32.034026 4.189797 -8.779166 44.607181 -0.525281 -6.333038 1.981222 0.182620 0.017640 0.044870 -3.458388 -2.187946 -8.521697 12.475139 -1.389250 28.524067 6.012869 -0.425429 2.459999 0.167005 3.067101 -5.201381 3.341390 -4.116934 43.340076 -2.295140 -1.551750 -5.525330 -15.293282 0.484715 0.545161 -9.865397 6.992544 -4.900858 41.150171 -49.728192 -15.180368 -3.661062 2.994123 0.171170 0.040040 0.025730 0.025680 16.016625 0.654991 -0.714702 28.692521 10.312710 -10.535895 -32.094973 56.174145 -14.360179 1.952179 -1.229060 -0.089480 0.138270 -0.022510 -0.106890 
